<svg xmlns="http://www.w3.org/2000/svg" viewBox="0 0 396 109.2"><path d="M9 0h87.7c4.9 0 8.9 4 8.9 8.9v91.3c0 4.9-4 8.9-8.9 8.9H9c-4.9 0-8.9-4-8.9-8.9V8.9C0 4 4 0 9 0z" fill="#FF8907"/><path d="M90.3 50.4c.8 3.8 1.2 7.8.9 11.8-.4 4-1.4 8-3.2 11.7-1.7 3.5-3.9 6.7-6.7 9.5-2.6 2.6-5.6 4.9-8.8 6.6-3.2 1.7-6.5 3-9.9 3.9-3.4.8-6.8 1.2-10.2 1.3-6.7.1-13.1-1.2-19-3.2-.4-.1-.8-.4-1.1-.6-1.8-.3-3.2-.8-3.5-1.5-3.2-19.2-7.4-38.2-10.6-58.1-3.5-5.8-5.8-11.3-3.3-12.4 3.9-1.8 7.8-3.1 11.6-3.9 3.8-.8 7.6-1.2 11.3-1.4 7.5-.2 14.8.8 22 3.3 3.6 1.3 7.2 2.9 10.7 5.1 3.3 2.2 6.4 4.8 9 7.7 2.6 2.9 4.8 6.1 6.6 9.5 2 3.2 3.3 6.9 4.2 10.7zM70.1 66.6c.4-1.7.5-3.3.4-5-.2-1.7-.7-3.4-1.4-5.1-.7-1.7-1.7-3.4-2.9-4.8-1.2-1.5-2.5-2.9-4-4s-3-2-4.6-2.6c-1.5-.6-3.3-1-5.2-1.3-1.3-.2-2.6-.3-4-.3-2.4 12.6-4.5 25.6-7 38.5 3.3.2 6.6.1 9.7-.4 4.7-.8 8.9-2.6 12.3-5.3 3.5-2.9 5.9-6.4 6.7-9.7z" fill="#fffbf3"/><path d="M148.7 22.9c12.9 0 23.4 10.5 23.4 23.4v15.9c0 12.9-10.5 23.4-23.4 23.4-1.3 0-2.6-.5-3.5-1.4l-18.5-18.5c-1.9-1.9-1.9-5.1.1-7 1.9-1.9 5-1.9 6.9 0l16.9 16.9c6.6-.9 11.7-6.6 11.7-13.5V46.3c0-7.5-6.1-13.6-13.6-13.6h-13.6v8.9l17.1 17.1c1.9 1.9 1.9 5.1-.1 7-1.9 1.9-5 1.9-6.9 0l-18.5-18.5c-.9-.9-1.4-2.2-1.4-3.5V27.8c0-2.7 2.2-4.9 4.9-4.9h18.5zm50.9 16.6c12.7 0 23.1 10.3 23.1 23.1s-10.3 23.1-23.1 23.1c-12.7 0-23.1-10.3-23.1-23.1s10.4-23.1 23.1-23.1zm0 36.3c7.3 0 13.2-5.9 13.2-13.2s-5.9-13.2-13.2-13.2c-7.3 0-13.2 5.9-13.2 13.2-.1 7.2 5.9 13.2 13.2 13.2zm36.5-36.3c12.7 0 23.1 10.3 23.1 23.1s-10.3 23.1-23.1 23.1c-12.7 0-23.1-10.3-23.1-23.1s10.3-23.1 23.1-23.1zm0 36.3c7.3 0 13.2-5.9 13.2-13.2s-5.9-13.2-13.2-13.2c-7.3 0-13.2 5.9-13.2 13.2-.1 7.2 5.9 13.2 13.2 13.2zM318 40c2.4 1.2 3.4 4.2 2.2 6.6L302 82.9c-1.2 2.4-4.2 3.4-6.6 2.2-1-.5-1.7-1.2-2.2-2.2l-3.4-6.8-3.4 6.8c-1.2 2.4-4.2 3.4-6.6 2.2-1-.5-1.7-1.2-2.2-2.2l-18.1-36.3c-1.2-2.4-.2-5.4 2.3-6.6 2.4-1.2 5.3-.2 6.5 2.2L282 69.7l13.7-27.5c1.2-2.4 4.2-3.4 6.6-2.1 2.4 1.2 3.3 4.1 2.2 6.5l-9.3 18.5 2.3 4.5 13.7-27.5c1.4-2.3 4.3-3.3 6.8-2.1zm12 12.5c2.7 0 4.9 2.2 4.9 4.9v23.3c0 2.7-2.2 4.9-4.9 4.9s-4.9-2.2-4.9-4.9V57.4c0-2.7 2.2-4.9 4.9-4.9zm-4.5-5.8-.3-.9c-.1-.3-.1-.6-.1-1 0-.3 0-.6.1-1 .1-.6.4-1.2.7-1.8.2-.3.4-.5.6-.8s.5-.4.8-.6c.5-.4 1.1-.6 1.8-.7 1.6-.3 3.3.2 4.4 1.3.5.5.8 1 1.1 1.6l.3.9c.1.3.1.6.1 1 0 .3 0 .6-.1 1-.1.6-.4 1.2-.7 1.8-.2.3-.4.5-.6.7-.2.2-.5.4-.8.6-.5.4-1.1.6-1.8.7-.3.1-.6.1-1 .1s-.6 0-1-.1c-.6-.1-1.2-.4-1.8-.7-.3-.2-.5-.4-.8-.6-.2-.2-.4-.5-.6-.7-.1-.2-.2-.5-.3-.8zm18.8 5.8c2.7 0 4.9 2.2 4.9 4.9v23.3c0 2.7-2.2 4.9-4.9 4.9s-4.9-2.2-4.9-4.9V57.4c0-2.7 2.2-4.9 4.9-4.9zm-4.6-5.8-.3-.9c-.1-.3-.1-.6-.1-1 0-.3 0-.6.1-1 .1-.6.4-1.2.7-1.8.4-.5.8-1 1.4-1.4.5-.4 1.1-.6 1.8-.7 1.6-.3 3.3.2 4.4 1.3.5.5.8 1 1.1 1.6l.3.9c.1.3.1.6.1 1 0 .3 0 .6-.1 1-.1.6-.4 1.2-.7 1.8-.2.3-.4.5-.6.7-.2.2-.5.4-.7.6-.5.4-1.1.6-1.8.7-.3.1-.6.1-1 .1s-.6 0-1-.1c-.6-.1-1.2-.4-1.8-.7-.5-.4-1-.8-1.4-1.4-.1-.1-.2-.4-.4-.7zm37.4 29.1c2.7 0 4.9 2.2 4.9 4.9s-2.2 4.9-4.9 4.9c-12.9 0-23.4-10.5-23.4-23.4V27.8c0-2.7 2.2-4.9 4.9-4.9s4.9 2.2 4.9 4.9v11.7h13.6c2.7 0 4.9 2.3 4.8 5 0 2.7-2.2 4.8-4.8 4.8h-13.6v12.8c0 7.6 6.1 13.7 13.6 13.7z" fill="#112"/></svg>
