<svg xmlns="http://www.w3.org/2000/svg" viewBox="0 0 398.222 109.8"><rect width="118" height="122" fill="#FF8907" rx="10" ry="10" transform="scale(.9)"/><path fill="#fffbf3" d="M90.782 50.653c.848 3.834 1.21 7.843.867 11.887a35.68 35.68 0 0 1-3.172 11.747 34.573 34.573 0 0 1-6.748 9.565 38.54 38.54 0 0 1-8.84 6.663c-3.172 1.74-6.504 3.064-9.944 3.919-3.453.849-6.85 1.243-10.227 1.296-6.744.073-13.154-1.221-19.095-3.265a3.793 3.793 0 0 1-1.084-.62c-1.782-.258-3.238-.78-3.486-1.552-3.215-19.287-7.463-38.371-10.687-58.469-3.524-5.866-5.805-11.32-3.322-12.503 3.924-1.851 7.825-3.07 11.67-3.94 3.84-.82 7.63-1.22 11.381-1.365 7.494-.154 14.866.805 22.156 3.284 3.642 1.286 7.256 2.887 10.758 5.14a47.18 47.18 0 0 1 9.097 7.774c2.64 2.899 4.818 6.127 6.634 9.534a42.39 42.39 0 0 1 4.043 10.904zM70.52 66.954c.395-1.683.532-3.339.376-5.055-.181-1.715-.675-3.46-1.386-5.157a19.94 19.94 0 0 0-2.879-4.85c-1.188-1.49-2.513-2.887-4.002-4.004-1.483-1.12-3.041-2.018-4.591-2.662-1.506-.602-3.313-1.039-5.19-1.354-1.271-.216-2.62-.306-3.981-.34-2.403 12.696-4.545 25.728-7.008 38.749 3.347.227 6.631.1 9.734-.445 4.774-.846 8.941-2.652 12.327-5.372 3.38-2.685 5.755-6.147 6.6-9.511z"/><path fill="#112" d="M149.568 23c12.993 0 23.565 10.572 23.563 23.564V62.52c0 12.993-10.572 23.566-23.565 23.566a4.948 4.948 0 0 1-3.5-1.45L127.45 66.02a4.948 4.948 0 0 1 6.997-6.997l17.034 17.035c6.634-.935 11.754-6.649 11.754-13.535V46.565c0-7.537-6.132-13.67-13.67-13.67h-13.668v8.961l17.167 17.168a4.948 4.948 0 0 1-6.997 6.997L127.45 47.404a4.948 4.948 0 0 1-1.45-3.499V27.948A4.948 4.948 0 0 1 130.95 23h18.617zm51.12 16.7c12.79 0 23.194 10.405 23.194 23.194s-10.404 23.194-23.193 23.194-23.194-10.404-23.194-23.194S187.9 39.701 200.69 39.701zm0 36.492c7.333 0 13.299-5.965 13.299-13.298s-5.966-13.298-13.298-13.298-13.298 5.966-13.298 13.298 5.965 13.298 13.298 13.298zm50.773-36.491c12.79 0 23.193 10.404 23.193 23.193s-10.404 23.194-23.193 23.194-23.194-10.404-23.194-23.194 10.404-23.193 23.194-23.193zm0 36.491c7.332 0 13.298-5.965 13.298-13.298s-5.966-13.298-13.298-13.298-13.298 5.966-13.298 13.298 5.965 13.298 13.298 13.298zm82.365-35.969a4.948 4.948 0 0 1 2.211 6.639l-18.245 36.491a4.948 4.948 0 0 1-8.851 0l-3.394-6.788-3.393 6.788a4.948 4.948 0 0 1-8.851 0l-18.246-36.491a4.948 4.948 0 0 1 8.85-4.426l13.821 27.642 13.821-27.642a4.948 4.948 0 0 1 8.85 4.426l-9.319 18.64 2.287 4.575 13.82-27.642a4.948 4.948 0 0 1 6.64-2.213zm12.108-.522a4.948 4.948 0 0 1 4.948 4.948V81.14a4.948 4.948 0 0 1-9.896 0V44.65a4.948 4.948 0 0 1 4.948-4.948zm-4.57-9.86a4.86 4.86 0 0 1-.28-.928c-.067-.315-.098-.643-.098-.965s.03-.65.099-.965a4.859 4.859 0 0 1 .736-1.78c.18-.273.383-.527.612-.755s.483-.433.755-.613a4.89 4.89 0 0 1 1.781-.736c1.608-.327 3.315.205 4.466 1.349a5.179 5.179 0 0 1 1.07 1.608c.123.297.216.612.278.928.068.315.099.643.099.964s-.031.65-.1.965a4.859 4.859 0 0 1-.735 1.782c-.18.272-.39.525-.612.754a4.804 4.804 0 0 1-.755.612 4.817 4.817 0 0 1-1.781.736c-.316.068-.643.1-.965.1s-.65-.032-.965-.1a4.859 4.859 0 0 1-1.781-.736c-.272-.179-.526-.383-.755-.612s-.433-.482-.612-.754a4.92 4.92 0 0 1-.458-.854zm18.931 9.86a4.948 4.948 0 0 1 4.948 4.948V81.14a4.948 4.948 0 0 1-9.896 0V44.65a4.948 4.948 0 0 1 4.948-4.948zm-4.57-9.86a4.86 4.86 0 0 1-.279-.928c-.068-.315-.099-.643-.099-.965s.031-.65.1-.965a4.859 4.859 0 0 1 .735-1.78 4.76 4.76 0 0 1 1.367-1.368 4.91 4.91 0 0 1 1.781-.736c1.608-.327 3.316.205 4.466 1.349a5.179 5.179 0 0 1 1.07 1.608c.124.297.216.612.278.928.068.315.1.643.1.964s-.032.65-.1.965a4.859 4.859 0 0 1-.736 1.782c-.179.272-.39.525-.612.754a4.804 4.804 0 0 1-.754.612 4.838 4.838 0 0 1-1.781.736c-.316.068-.644.1-.966.1s-.65-.032-.965-.1a4.859 4.859 0 0 1-1.78-.736 4.7 4.7 0 0 1-1.368-1.366 4.92 4.92 0 0 1-.457-.854zm37.55 46.351a4.948 4.948 0 0 1 0 9.896c-12.994 0-23.566-10.571-23.566-23.565V27.949a4.948 4.948 0 0 1 9.896 0v11.765h13.668a4.948 4.948 0 0 1 0 9.895h-13.668v12.914c0 7.537 6.132 13.669 13.669 13.669z"/></svg>
